<svg
  xmlns="http://www.w3.org/2000/svg"
  data-name="behance"
  viewBox="0 0 40 40">
  <path d="M32.09 13.31h-7.51v-1.87h7.51v1.87zM19.57 21a4.94 4.94 0 0 1 .73 2.74 5.42 5.42 0 0 1-.83 3 5 5 0 0 1-1.32 1.46 5.14 5.14 0 0 1-2.11.94 12.84 12.84 0 0 1-2.63.25H5V10.67h9q3.42 0 4.84 2a4.79 4.79 0 0 1 .85 2.86 4.11 4.11 0 0 1-.86 2.74 4.36 4.36 0 0 1-1.42 1.07A4.1 4.1 0 0 1 19.57 21zM9.3 18h3.95a3.74 3.74 0 0 0 2-.47 1.76 1.76 0 0 0 .75-1.61 1.67 1.67 0 0 0-1-1.72 7.1 7.1 0 0 0-2.2-.29H9.3zm7.07 5.4a2 2 0 0 0-1.19-2 4.65 4.65 0 0 0-1.87-.31h-4v5h3.95a4.39 4.39 0 0 0 1.89-.33 2.34 2.34 0 0 0 1.22-2.33zm18.51-3a18.38 18.38 0 0 1 .12 2.65h-9.74a3.19 3.19 0 0 0 1.4 2.82 3.49 3.49 0 0 0 1.93.5 3 3 0 0 0 1.94-.61 2.85 2.85 0 0 0 .71-.92h3.57a4.32 4.32 0 0 1-1.29 2.42 6.51 6.51 0 0 1-5 1.95 7.32 7.32 0 0 1-4.71-1.64q-2-1.65-2-5.36a7.22 7.22 0 0 1 1.84-5.33A6.43 6.43 0 0 1 28.36 15a7.64 7.64 0 0 1 3.15.63 5.41 5.41 0 0 1 2.3 2 6.56 6.56 0 0 1 1.07 2.77zm-3.51.34a2.93 2.93 0 0 0-.94-2.11 3 3 0 0 0-2.07-.72 2.78 2.78 0 0 0-2.08.76 3.63 3.63 0 0 0-.94 2.07z"/>
</svg>
