<svg
  xmlns="http://www.w3.org/2000/svg"
  data-name="twitter"
  viewBox="0 0 40 40">
  <path d="M35 11.21a16.13 16.13 0 0 1-4 1.29 8.09 8.09 0 0 0 3-4 19.63 19.63 0 0 1-3.23 1.77L30 9.5a5.14 5.14 0 0 0-4-2 5.89 5.89 0 0 0-6 6 4.09 4.09 0 0 0 .11 1H20c-6 0-10-1.28-13-5a5.93 5.93 0 0 0-1 3 6.19 6.19 0 0 0 3 5 7.26 7.26 0 0 1-3-1c0 3 4.19 6.43 7 7-1 1-4.62.07-5 0a6.24 6.24 0 0 0 6 4A11.92 11.92 0 0 1 6.47 30 14.17 14.17 0 0 1 5 29.93a19.3 19.3 0 0 0 10 2.57c11.32 0 17-8.87 17-17v-1a12.9 12.9 0 0 0 3-3.29z"/>
</svg>
