<?xml version="1.0" ?><!DOCTYPE svg  PUBLIC '-//W3C//DTD SVG 1.1//EN'  'http://www.w3.org/Graphics/SVG/1.1/DTD/svg11.dtd'><svg enable-background="new 0 0 30 30" height="30px" id="Twitter" version="1.1" viewBox="0 0 30 30" width="30px" xml:space="preserve" xmlns="http://www.w3.org/2000/svg" xmlns:xlink="http://www.w3.org/1999/xlink"><g><path d="M30,6.708C28.895,7.199,27.244,7.851,26,8c1.273-0.762,2.539-2.561,3-4c-0.971,0.577-2.087,1.355-3.227,1.773    L25,5c-1.121-1.197-2.23-2-4-2c-3.398,0-6,2.602-6,6c0,0.399,0.047,0.7,0.11,0.956L15,10C9,10,5.034,8.724,2,5    C1.469,5.908,1,6.872,1,8c0,2.136,1.348,3.894,3,5c-1.009-0.033-2.171-0.542-3-1c0,2.98,4.186,6.432,7,7c-1,1-4.623,0.074-5,0    c0.784,2.447,3.309,3.949,6,4c-2.105,1.648-4.647,2.51-7.531,2.51c-0.498,0-0.987-0.029-1.469-0.084C2.723,27.17,6.523,28,10,28    c11.322,0,17-8.867,17-17c0-0.268,0.008-0.736,0-1C28.201,9.132,29.172,7.942,30,6.708z" id="Brid"/></g></svg>